<?xml version="1.0" standalone="no"?><!DOCTYPE svg PUBLIC "-//W3C//DTD SVG 1.1//EN" "http://www.w3.org/Graphics/SVG/1.1/DTD/svg11.dtd"><svg width="100%" height="100%" viewBox="0 0 461 260" version="1.1" xmlns="http://www.w3.org/2000/svg" xmlns:xlink="http://www.w3.org/1999/xlink" xml:space="preserve" style="fill-rule:evenodd;clip-rule:evenodd;stroke-linecap:round;stroke-linejoin:round;stroke-miterlimit:1.41421;"><clipPath id="_clip1"><rect id="interactiveHeader" x="0" y="0" width="460.8" height="259.2"/></clipPath><g clip-path="url(#_clip1)"><circle cx="230.4" cy="135.793" r="10.568" style="fill:#ff2400;stroke-width:1.5px;stroke:#2da0ff;"/><path d="M255.633,254.513c0.303,7.998 -22.702,4.752 -22.845,-2.2c-0.204,-9.94 -1.461,-21.051 -4.884,-27.612c-3.085,-5.914 -10.356,-7.958 -15.654,-11.755c-5.623,-4.03 -14.968,-9.01 -18.084,-12.424c-1.775,-1.943 -2.011,-6.716 -0.617,-8.059c1.394,-1.343 6.227,-1.239 8.979,0c3.662,1.648 8.591,8.241 12.996,9.889c4.219,1.579 11.028,2.99 13.434,0c2.406,-2.99 1.044,-11.949 1.001,-17.939c-0.055,-7.521 -0.917,-19.325 -1.331,-27.184c-0.35,-6.66 -1.868,-15.517 -1.149,-19.972c0.47,-2.918 3.591,-6.814 5.464,-6.762c1.872,0.052 4.938,4.092 5.771,7.074c1.212,4.34 1.095,13.015 1.5,18.967c0.38,5.577 0.515,11.171 0.93,16.745c0.453,6.087 2.094,19.778 1.789,19.778c-0.304,0 -0.846,-15.33 0.037,-19.778c0.574,-2.89 3.418,-6.912 5.262,-6.912c1.845,0 4.987,3.96 5.806,6.912c1.234,4.448 1.33,18.385 1.595,19.778c0.266,1.394 -0.937,-8.12 0,-11.416c0.931,-3.272 3.689,-8.362 5.623,-8.362c1.935,0 5.928,4.873 5.985,8.362c0.076,4.732 0.56,7.606 0.551,11.416c-0.014,6.514 1.151,18.633 -0.636,27.663c-2.026,10.243 -12.347,11.997 -11.523,33.791Z" style="fill:#2da0ff;stroke-width:1.5px;stroke:#2d90ff;"/><g><path d="M230.4,114.424c0,2.8 0,5.6 0,8.4" style="fill:none;stroke-width:1.5px;stroke:#2da0ff;"/><path d="M221.666,116.008l3.147,7.788" style="fill:none;stroke-width:1.5px;stroke:#2da0ff;"/><path d="M214.453,120.646c1.606,2.294 3.212,4.587 4.818,6.881" style="fill:none;stroke-width:1.5px;stroke:#2da0ff;"/><path d="M208.897,128.497c2.577,1.094 5.155,2.188 7.732,3.282" style="fill:none;stroke-width:1.5px;stroke:#2da0ff;"/><path d="M251.903,146.564c-2.577,-1.094 -5.155,-2.188 -7.732,-3.282" style="fill:none;stroke-width:1.5px;stroke:#2da0ff;"/><path d="M246.908,120.928c-1.98,1.98 -3.96,3.96 -5.94,5.94" style="fill:none;stroke-width:1.5px;stroke:#2da0ff;"/><path d="M239.522,115.945c-1.094,2.578 -2.188,5.155 -3.282,7.733" style="fill:none;stroke-width:1.5px;stroke:#2da0ff;"/><path d="M207.117,137.625c2.8,0 5.6,0 8.4,0" style="fill:none;stroke-width:1.5px;stroke:#2da0ff;"/><path d="M253.683,137.437c-2.8,0 -5.6,0 -8.4,0" style="fill:none;stroke-width:1.5px;stroke:#2da0ff;"/><path d="M208.775,146.362c2.596,-1.049 5.192,-2.098 7.788,-3.147" style="fill:none;stroke-width:1.5px;stroke:#2da0ff;"/><path d="M252.025,128.699c-2.596,1.049 -5.192,2.098 -7.788,3.147" style="fill:none;stroke-width:1.5px;stroke:#2da0ff;"/></g><path d="M179.334,137.588c8.264,0 16.528,0 24.792,0" style="fill:none;stroke-width:1.29px;stroke-dasharray:1.29,1.29;stroke:#2da0ff;"/><circle cx="150.612" cy="137.588" r="10.568" style="fill:#ff2400;stroke-width:1.5px;stroke:#2da0ff;"/><g><path d="M151.112,114.424c0,2.8 0,5.6 0,8.4" style="fill:none;stroke-width:1.5px;stroke:#2da0ff;"/><path d="M151.112,161.541c0,-2.8 0,-5.6 0,-8.4" style="fill:none;stroke-width:1.5px;stroke:#2da0ff;"/><path d="M142.378,116.008l3.147,7.788" style="fill:none;stroke-width:1.5px;stroke:#2da0ff;"/><path d="M159.846,159.235c-1.049,-2.596 -2.098,-5.192 -3.147,-7.789" style="fill:none;stroke-width:1.5px;stroke:#2da0ff;"/><path d="M135.165,120.646c1.606,2.294 3.212,4.587 4.818,6.881" style="fill:none;stroke-width:1.5px;stroke:#2da0ff;"/><path d="M167.62,153.945c-1.98,-1.98 -3.96,-3.96 -5.94,-5.94" style="fill:none;stroke-width:1.5px;stroke:#2da0ff;"/><path d="M129.609,128.497c2.577,1.094 5.155,2.188 7.732,3.282" style="fill:none;stroke-width:1.5px;stroke:#2da0ff;"/><path d="M172.615,146.564c-2.577,-1.094 -5.155,-2.188 -7.732,-3.282" style="fill:none;stroke-width:1.5px;stroke:#2da0ff;"/><path d="M134.604,154.133c1.98,-1.98 3.96,-3.96 5.939,-5.94" style="fill:none;stroke-width:1.5px;stroke:#2da0ff;"/><path d="M167.62,120.928c-1.98,1.98 -3.96,3.96 -5.94,5.94" style="fill:none;stroke-width:1.5px;stroke:#2da0ff;"/><path d="M141.989,159.116c1.095,-2.577 2.189,-5.155 3.283,-7.732" style="fill:none;stroke-width:1.5px;stroke:#2da0ff;"/><path d="M160.234,115.945c-1.094,2.578 -2.188,5.155 -3.282,7.733" style="fill:none;stroke-width:1.5px;stroke:#2da0ff;"/><path d="M127.829,137.625c2.8,0 5.6,0 8.4,0" style="fill:none;stroke-width:1.5px;stroke:#2da0ff;"/><path d="M174.395,137.437c-2.8,0 -5.6,0 -8.4,0" style="fill:none;stroke-width:1.5px;stroke:#2da0ff;"/><path d="M129.487,146.362c2.596,-1.049 5.192,-2.098 7.788,-3.147" style="fill:none;stroke-width:1.5px;stroke:#2da0ff;"/><path d="M172.737,128.699c-2.596,1.049 -5.192,2.098 -7.788,3.147" style="fill:none;stroke-width:1.5px;stroke:#2da0ff;"/></g><path d="M230.49,100.722c0,3.683 0,7.366 0,11.05" style="fill:none;stroke-width:1.17px;stroke-dasharray:1.17,1.17;stroke:#2da0ff;"/><circle cx="230.4" cy="73.601" r="10.568" style="fill:#ff2400;stroke-width:1.5px;stroke:#2da0ff;"/><g><path d="M230.4,50.043c0,2.8 0,5.6 0,8.4" style="fill:none;stroke-width:1.5px;stroke:#2da0ff;"/><path d="M230.4,97.16c0,-2.8 0,-5.6 0,-8.4" style="fill:none;stroke-width:1.5px;stroke:#2da0ff;"/><path d="M221.666,51.627l3.147,7.788" style="fill:none;stroke-width:1.5px;stroke:#2da0ff;"/><path d="M239.134,94.854c-1.049,-2.597 -2.098,-5.193 -3.147,-7.789" style="fill:none;stroke-width:1.5px;stroke:#2da0ff;"/><path d="M214.453,56.265c1.606,2.293 3.212,4.587 4.818,6.881" style="fill:none;stroke-width:1.5px;stroke:#2da0ff;"/><path d="M246.908,89.564c-1.98,-1.98 -3.96,-3.96 -5.94,-5.94" style="fill:none;stroke-width:1.5px;stroke:#2da0ff;"/><path d="M208.897,64.116c2.577,1.094 5.155,2.188 7.732,3.282" style="fill:none;stroke-width:1.5px;stroke:#2da0ff;"/><path d="M251.903,82.183c-2.577,-1.094 -5.155,-2.188 -7.732,-3.282" style="fill:none;stroke-width:1.5px;stroke:#2da0ff;"/><path d="M213.892,89.752c1.98,-1.98 3.96,-3.96 5.94,-5.94" style="fill:none;stroke-width:1.5px;stroke:#2da0ff;"/><path d="M246.908,56.547c-1.98,1.98 -3.96,3.96 -5.94,5.94" style="fill:none;stroke-width:1.5px;stroke:#2da0ff;"/><path d="M221.278,94.735c1.094,-2.578 2.188,-5.155 3.282,-7.732" style="fill:none;stroke-width:1.5px;stroke:#2da0ff;"/><path d="M239.522,51.564c-1.094,2.578 -2.188,5.155 -3.282,7.732" style="fill:none;stroke-width:1.5px;stroke:#2da0ff;"/><path d="M207.117,73.244c2.8,0 5.6,0 8.4,0" style="fill:none;stroke-width:1.5px;stroke:#2da0ff;"/><path d="M253.683,73.055c-2.8,0 -5.6,0 -8.4,0" style="fill:none;stroke-width:1.5px;stroke:#2da0ff;"/><path d="M208.775,81.981c2.596,-1.049 5.192,-2.098 7.788,-3.147" style="fill:none;stroke-width:1.5px;stroke:#2da0ff;"/><path d="M252.025,64.318c-2.596,1.049 -5.192,2.098 -7.788,3.147" style="fill:none;stroke-width:1.5px;stroke:#2da0ff;"/></g><path d="M279.527,137.588c-6.842,0 -13.684,0 -20.525,0" style="fill:none;stroke-width:1.25px;stroke-dasharray:1.25,1.25;stroke:#2da0ff;"/><circle cx="307.708" cy="137.588" r="10.568" style="fill:#ff2400;stroke-width:1.5px;stroke:#2da0ff;"/><g><path d="M306.999,114.03c0,2.8 0,5.6 0,8.4" style="fill:none;stroke-width:1.5px;stroke:#2da0ff;"/><path d="M306.999,161.147c0,-2.8 0,-5.6 0,-8.4" style="fill:none;stroke-width:1.5px;stroke:#2da0ff;"/><path d="M298.266,115.614l3.146,7.788" style="fill:none;stroke-width:1.5px;stroke:#2da0ff;"/><path d="M315.733,158.84c-1.049,-2.596 -2.098,-5.192 -3.147,-7.788" style="fill:none;stroke-width:1.5px;stroke:#2da0ff;"/><path d="M291.052,120.251c1.606,2.294 3.212,4.588 4.818,6.881" style="fill:none;stroke-width:1.5px;stroke:#2da0ff;"/><path d="M323.507,153.55c-1.979,-1.98 -3.959,-3.96 -5.939,-5.939" style="fill:none;stroke-width:1.5px;stroke:#2da0ff;"/><path d="M285.496,128.103c2.578,1.094 5.155,2.188 7.732,3.282" style="fill:none;stroke-width:1.5px;stroke:#2da0ff;"/><path d="M328.502,146.17c-2.577,-1.094 -5.154,-2.188 -7.732,-3.283" style="fill:none;stroke-width:1.5px;stroke:#2da0ff;"/><path d="M290.491,153.738c1.98,-1.979 3.96,-3.959 5.94,-5.939" style="fill:none;stroke-width:1.5px;stroke:#2da0ff;"/><path d="M323.507,120.534c-1.979,1.98 -3.959,3.96 -5.939,5.94" style="fill:none;stroke-width:1.5px;stroke:#2da0ff;"/><path d="M297.877,158.721c1.094,-2.577 2.188,-5.154 3.282,-7.732" style="fill:none;stroke-width:1.5px;stroke:#2da0ff;"/><path d="M316.122,115.551c-1.094,2.577 -2.188,5.155 -3.282,7.732" style="fill:none;stroke-width:1.5px;stroke:#2da0ff;"/><path d="M283.717,137.23c2.8,0 5.6,0 8.4,0" style="fill:none;stroke-width:1.5px;stroke:#2da0ff;"/><path d="M330.282,137.042c-2.8,0 -5.6,0 -8.4,0" style="fill:none;stroke-width:1.5px;stroke:#2da0ff;"/><path d="M285.374,145.967c2.596,-1.049 5.192,-2.097 7.788,-3.146" style="fill:none;stroke-width:1.5px;stroke:#2da0ff;"/><path d="M328.625,128.305c-2.597,1.049 -5.193,2.098 -7.789,3.147" style="fill:none;stroke-width:1.5px;stroke:#2da0ff;"/></g><text x="188.874px" y="34.73px" style="font-family:'Rajdhani-Regular';font-size:12px;fill:#2da0ff;stroke-width:0.5px;stroke-linecap:butt;stroke:#2da0ff;">Interactive Media</text></g></svg>