<?xml version="1.0" standalone="no"?><!DOCTYPE svg PUBLIC "-//W3C//DTD SVG 1.1//EN" "http://www.w3.org/Graphics/SVG/1.1/DTD/svg11.dtd"><svg width="100%" height="100%" viewBox="0 0 461 260" version="1.1" xmlns="http://www.w3.org/2000/svg" xmlns:xlink="http://www.w3.org/1999/xlink" xml:space="preserve" style="fill-rule:evenodd;clip-rule:evenodd;stroke-linejoin:round;stroke-miterlimit:1.41421;"><clipPath id="_clip1"><rect id="motionHeader" x="0" y="0" width="460.8" height="259.2"/></clipPath><g clip-path="url(#_clip1)"><text x="197.349px" y="68.939px" style="font-family:'Rajdhani-Regular';font-size:12px;fill:#2da0ff;stroke-width:0.5px;stroke:#2da0ff;">Motion Graphics</text><g><path d="M287.487,128.117l0,-12.916" style="fill:none;stroke-width:3px;stroke-linecap:round;stroke:#2da0ff;"/><path d="M276.589,125.369l10.898,-7.764" style="fill:none;stroke-width:3px;stroke-linecap:round;stroke:#2da0ff;"/><path d="M298.379,125.369l-10.892,-7.764" style="fill:none;stroke-width:3px;stroke-linecap:round;stroke:#2da0ff;"/><clipPath id="_clip2"><path d="M287.712,95.133c3.535,0 9.652,0.342 9.393,6.594c-0.294,7.085 -6.834,13.474 -9.016,13.474c-2.181,0 -9.335,-4.697 -10.186,-12.91c-0.637,-6.147 6.274,-7.158 9.809,-7.158Z"/></clipPath><g clip-path="url(#_clip2)"><path d="M286.116,109.981l2.965,0" style="fill:none;stroke-width:1.5px;stroke-linecap:round;stroke:#2da0ff;"/><ellipse cx="283.292" cy="103.579" rx="2.825" ry="1.588" style="fill:none;stroke-width:1.5px;stroke-linecap:round;stroke:#2da0ff;"/><ellipse cx="291.718" cy="103.579" rx="2.637" ry="1.588" style="fill:none;stroke-width:1.5px;stroke-linecap:round;stroke:#2da0ff;"/></g><path d="M287.712,95.133c3.535,0 9.652,0.342 9.393,6.594c-0.294,7.085 -6.834,13.474 -9.016,13.474c-2.181,0 -9.335,-4.697 -10.186,-12.91c-0.637,-6.147 6.274,-7.158 9.809,-7.158Z" style="fill:none;stroke-width:3px;stroke-linecap:round;stroke:#2da0ff;"/></g><g><path d="M11.572,114.134c47.278,19.965 104.006,24.153 160.312,23.213" style="fill:none;stroke-width:3px;stroke-linecap:round;stroke:#2da0ff;"/><path d="M7.866,144.826l160.814,-1.182" style="fill:none;stroke-width:3px;stroke-linecap:round;stroke:#2da0ff;"/><path d="M5.311,174.187c48.724,-19.534 112.676,-26.344 166.573,-24.572" style="fill:none;stroke-width:3px;stroke-linecap:round;stroke:#2da0ff;"/></g><g><ellipse cx="290.013" cy="143.644" rx="121.564" ry="24.046" style="fill:none;stroke-width:3px;stroke-linecap:round;stroke:#2da0ff;"/><path d="M286.711,88.497c25.454,0 46.209,21.997 47.366,34.101c0.073,0.765 -21.912,5.519 -47.366,5.519c-25.455,0 -45.87,-5.826 -45.82,-6.441c0.898,-11.057 20.365,-33.179 45.82,-33.179Z" style="fill:none;stroke-width:3px;stroke-linecap:round;stroke:#2da0ff;"/></g><g><path d="M6.538,144.826c5.981,-3.416 8.735,-12.198 8.53,-18.285c-0.204,-6.088 -3.787,-16.084 -9.757,-18.24" style="fill:none;stroke-width:1.5px;stroke-linecap:round;stroke:#2da0ff;"/><path d="M-10.205,207.438c6.876,-0.396 13.253,-7.033 15.781,-12.574c2.527,-5.542 3.771,-16.088 -0.614,-20.677" style="fill:none;stroke-width:1.5px;stroke-linecap:round;stroke:#2da0ff;"/><path d="M16.958,190.07c13.922,-1.993 16.586,-9.324 17.841,-15.489c1.255,-6.165 -2.751,-16.778 -10.311,-21.501" style="fill:none;stroke-width:1.5px;stroke-linecap:round;stroke:#2da0ff;"/><path d="M-21.493,221.066c3.965,13.581 22.329,17.88 27.982,14.294c9.992,-6.34 12.04,-15.491 9.444,-28.004" style="fill:none;stroke-width:1.5px;stroke-linecap:round;stroke:#2da0ff;"/><path d="M11.572,54.161c-3.965,-13.581 -22.007,-11.617 -27.659,-8.031c-9.992,6.341 -15.468,13.561 -12.871,26.074" style="fill:none;stroke-width:1.5px;stroke-linecap:round;stroke:#2da0ff;"/><path d="M10.493,111.845c1.3,-1.778 2.463,-7.581 2.06,-13.103c-0.488,-6.677 -4.034,-10.195 -5.806,-11.955" style="fill:none;stroke-width:1.5px;stroke-linecap:round;stroke:#2da0ff;"/><path d="M26.311,155.208c3.342,-2.46 10.252,-10.161 10.732,-18.553c0.582,-10.147 -6.44,-16.051 -9.951,-19.002" style="fill:none;stroke-width:1.5px;stroke-linecap:round;stroke:#2da0ff;"/><path d="M27.092,89.768c4.453,-4.919 13.359,-14.758 7.274,-26.861c-4.929,-9.805 -20.056,-8.473 -27.619,-7.807" style="fill:none;stroke-width:1.5px;stroke-linecap:round;stroke:#2da0ff;"/><path d="M12.931,79.283c0.14,-5.112 -4.718,-10.905 -8.384,-13.092c-3.667,-2.188 -11.541,-3.234 -13.617,-0.033" style="fill:none;stroke-width:1.5px;stroke-linecap:round;stroke:#2da0ff;"/><path d="M18.785,123.687c10.006,-3.791 15.581,-14.62 15.581,-21.097c0,-6.476 -7.033,-17.546 -15.581,-17.762" style="fill:none;stroke-width:1.5px;stroke-linecap:round;stroke:#2da0ff;"/><path d="M7.866,206.172c5.732,2.615 12.511,0.834 15.281,-2.224c2.771,-3.058 4.793,-12.459 1.341,-16.125" style="fill:none;stroke-width:1.5px;stroke-linecap:round;stroke:#2da0ff;"/></g></g></svg>