<?xml version="1.0" standalone="no"?><!DOCTYPE svg PUBLIC "-//W3C//DTD SVG 1.1//EN" "http://www.w3.org/Graphics/SVG/1.1/DTD/svg11.dtd"><svg width="100%" height="100%" viewBox="0 0 461 260" version="1.1" xmlns="http://www.w3.org/2000/svg" xmlns:xlink="http://www.w3.org/1999/xlink" xml:space="preserve" style="fill-rule:evenodd;clip-rule:evenodd;stroke-linecap:round;stroke-linejoin:round;stroke-miterlimit:1.41421;"><g><path d="M211.457,163.16l29.85,-23.484" style="fill:none;stroke-width:3px;stroke:#2da0ff;"/><g><path d="M211.47,141.161l-0.013,21.999" style="fill:none;stroke-width:3px;stroke:#2da0ff;"/><path d="M210.986,143.379c-0.764,1.104 -4.671,1.293 -7.902,-1.39c-2.211,-1.836 -3.667,-5.807 -2.46,-7.46c0.513,-0.703 2.769,-2.331 6.798,1.292c4.086,3.674 4.622,6.028 3.564,7.558Z" style="fill:#2da0ff;stroke-width:3px;stroke:#2da0ff;"/></g><g><path d="M241.319,109.506l-0.012,30.547" style="fill:none;stroke-width:3px;stroke:#2da0ff;"/><path d="M240.836,111.724c-0.764,1.105 -4.671,1.293 -7.902,-1.39c-2.212,-1.836 -3.667,-5.807 -2.461,-7.46c0.513,-0.703 2.77,-2.331 6.799,1.292c4.086,3.674 4.622,6.028 3.564,7.558Z" style="fill:#2da0ff;stroke-width:3px;stroke:#2da0ff;"/></g></g><g><path d="M280.438,126.629l-0.014,30.065" style="fill:none;stroke-width:3px;stroke:#2da0ff;"/><path d="M279.889,128.795c-0.868,1.111 -5.309,1.301 -8.981,-1.398c-2.513,-1.847 -4.167,-5.841 -2.796,-7.503c0.583,-0.707 3.147,-2.344 7.727,1.3c4.644,3.695 5.252,6.062 4.05,7.601Z" style="fill:none;stroke-width:3px;stroke:#2da0ff;"/></g><g><path d="M178.183,153.271l-0.013,-30.546" style="fill:none;stroke-width:3px;stroke:#2da0ff;"/><path d="M177.699,151.054c-0.764,-1.105 -4.671,-1.294 -7.902,1.389c-2.211,1.837 -3.667,5.808 -2.46,7.46c0.512,0.703 2.769,2.331 6.798,-1.292c4.086,-3.674 4.622,-6.027 3.564,-7.557Z" style="fill:#2da0ff;stroke-width:3px;stroke:#2da0ff;"/></g><text x="187.412px" y="91.93px" style="font-family:'Rajdhani-Regular';font-size:12px;fill:#2da0ff;stroke-width:0.5px;stroke-linecap:butt;stroke:#2da0ff;">Music Production</text><path d="M142.627,107.339l165.441,0" style="fill:none;stroke-width:3px;stroke:#2da0ff;"/><path d="M142.627,124.236l165.441,0" style="fill:none;stroke-width:3px;stroke:#2da0ff;"/><path d="M142.627,138.846l165.441,0" style="fill:none;stroke-width:3px;stroke:#2da0ff;"/><path d="M142.627,155.587l165.441,0" style="fill:none;stroke-width:3px;stroke:#2da0ff;"/><path d="M142.627,171.561l165.441,0" style="fill:none;stroke-width:3px;stroke:#2da0ff;"/></svg>