<?xml version="1.0" standalone="no"?><!DOCTYPE svg PUBLIC "-//W3C//DTD SVG 1.1//EN" "http://www.w3.org/Graphics/SVG/1.1/DTD/svg11.dtd"><svg width="100%" height="100%" viewBox="0 0 461 260" version="1.1" xmlns="http://www.w3.org/2000/svg" xmlns:xlink="http://www.w3.org/1999/xlink" xml:space="preserve" style="fill-rule:evenodd;clip-rule:evenodd;stroke-linejoin:round;stroke-miterlimit:1.41421;"><clipPath id="_clip1"><rect id="audioVisualRx" x="0" y="0" width="460.8" height="259.2"/></clipPath><g clip-path="url(#_clip1)"><text x="188.67px" y="40.579px" style="font-family:'Rajdhani-Regular';font-size:12px;fill:#2da0ff;stroke-width:0.5px;stroke:#2da0ff;">Audio &amp; Visual Rx</text><g><circle cx="230.441" cy="141.155" r="32.908" style="fill:url(#_Radial2);"/><path d="M230.441,106.173c19.308,0 34.983,15.675 34.983,34.982c0,19.307 -15.675,34.982 -34.983,34.982c-19.307,0 -34.982,-15.675 -34.982,-34.982c0,-19.307 15.675,-34.982 34.982,-34.982ZM230.441,108.247c18.163,0 32.908,14.746 32.908,32.908c0,18.162 -14.745,32.908 -32.908,32.908c-18.162,0 -32.907,-14.746 -32.907,-32.908c0,-18.162 14.745,-32.908 32.907,-32.908Z" style="fill:url(#_Radial3);"/><circle cx="230.441" cy="141.155" r="8.178" style="fill:url(#_Radial4);"/><path d="M234.793,96.972c-2.894,-0.285 -5.809,-0.285 -8.703,0l-1.308,6.873c-2.77,0.42 -5.485,1.147 -8.095,2.169l-4.568,-5.298c-2.649,1.2 -5.174,2.658 -7.537,4.351l2.303,6.606c-2.189,1.749 -4.176,3.737 -5.925,5.926l-6.606,-2.304c-1.694,2.364 -3.151,4.888 -4.352,7.537l5.298,4.569c-1.021,2.609 -1.749,5.324 -2.169,8.095l-6.872,1.307c-0.285,2.894 -0.285,5.81 0,8.704l6.872,1.307c0.42,2.771 1.148,5.486 2.169,8.095l-5.298,4.569c1.201,2.649 2.658,5.173 4.352,7.537l6.606,-2.304c1.749,2.189 3.736,4.177 5.925,5.926l-2.303,6.606c2.363,1.693 4.888,3.151 7.537,4.351l4.568,-5.298c2.61,1.022 5.325,1.749 8.095,2.169l1.308,6.873c2.894,0.285 5.809,0.285 8.703,0l1.308,-6.873c2.77,-0.42 5.485,-1.147 8.094,-2.169l4.569,5.298c2.649,-1.2 5.174,-2.658 7.537,-4.351l-2.303,-6.606c2.189,-1.749 4.176,-3.737 5.925,-5.926l6.606,2.304c1.694,-2.364 3.151,-4.888 4.352,-7.537l-5.298,-4.569c1.021,-2.609 1.748,-5.324 2.169,-8.095l6.872,-1.307c0.285,-2.894 0.285,-5.81 0,-8.704l-6.872,-1.307c-0.421,-2.771 -1.148,-5.486 -2.169,-8.095l5.298,-4.569c-1.201,-2.649 -2.658,-5.173 -4.352,-7.537l-6.606,2.304c-1.749,-2.189 -3.736,-4.177 -5.925,-5.926l2.303,-6.606c-2.363,-1.693 -4.888,-3.151 -7.537,-4.351l-4.569,5.298c-2.609,-1.022 -5.324,-1.749 -8.094,-2.169l-1.308,-6.873ZM230.383,105.831c19.512,0 35.353,15.841 35.353,35.353c0,19.512 -15.841,35.353 -35.353,35.353c-19.511,0 -35.352,-15.841 -35.352,-35.353c0,-19.512 15.841,-35.353 35.352,-35.353Z" style="fill:none;stroke-width:1.5px;stroke-linecap:round;stroke:#0b7ad6;"/></g><path d="M286.672,149.234c-2.013,2.408 -5.046,4.228 -9.301,4.025c-8.068,-0.386 -10.554,-8.342 -16.948,-8.259c-10.214,0.132 -47.731,-1.209 -58.156,0.29c-6.684,0.961 -9.997,9.072 -18.293,8.704c-5.941,-0.263 -13.103,-4.599 -13.063,-12.816c0.039,-7.663 5.442,-12.559 12.985,-12.709c12.72,-0.253 11.251,7.551 17.738,8.497c10.437,1.523 48.94,1.109 58.777,0.638c6.154,-0.294 6.805,-8.667 17.551,-9.28c4.506,-0.257 7.526,1.959 9.399,4.752l-11.009,0l-5.128,8.079l18.665,0l-18.665,0l5.128,8.079l10.32,0ZM189.859,149.234l5.128,-8.079l-20.513,0l5.128,8.079l10.257,0ZM194.987,141.155l-5.128,-8.079l-10.257,0l-5.128,8.079l20.513,0Z" style="fill:url(#_Linear5);"/><g><path d="M236.796,162.443c0,-1.765 -1.433,-3.198 -3.198,-3.198l-6.396,0c-1.765,0 -3.198,1.433 -3.198,3.198l0,30.759c0,1.765 1.433,3.198 3.198,3.198l6.396,0c1.765,0 3.198,-1.433 3.198,-3.198l0,-30.759Z" style="fill:url(#_Linear6);"/><path d="M228.287,161.483c0.171,-10.27 0.25,-48.836 0,-59.77c-0.046,-2.007 -1.623,-3.829 -1.5,-5.833c0.161,-2.621 1.009,-5.669 2.465,-9.894c0.018,-0.055 2.898,-0.138 2.933,0c1.027,4.011 1.816,7.296 1.839,9.894c0.017,1.981 -1.651,3.713 -1.703,5.693c-0.283,10.916 0.095,50.107 0,59.805c-0.013,1.345 -4.056,1.45 -4.034,0.105Z" style="fill:url(#_Linear7);"/></g><g><g><rect x="374.884" y="63.102" width="24.244" height="9.246" style="fill:none;stroke-width:3px;stroke-linecap:round;stroke:#2da0ff;"/><rect x="441.774" y="63.102" width="24.244" height="9.246" style="fill:none;stroke-width:3px;stroke-linecap:round;stroke:#2da0ff;"/><rect x="359.041" y="55.253" width="257.167" height="24.223" style="fill:none;stroke-width:3px;stroke-linecap:round;stroke:#2da0ff;"/><rect x="374.884" y="209.961" width="24.244" height="9.246" style="fill:none;stroke-width:3px;stroke-linecap:round;stroke:#2da0ff;"/><rect x="441.774" y="209.961" width="24.244" height="9.246" style="fill:none;stroke-width:3px;stroke-linecap:round;stroke:#2da0ff;"/><rect x="359.041" y="202.833" width="257.167" height="24.223" style="fill:none;stroke-width:3px;stroke-linecap:round;stroke:#2da0ff;"/><rect x="359.065" y="79.477" width="257.167" height="123.357" style="fill:none;stroke-width:3px;stroke-linecap:round;stroke:#2da0ff;"/></g><g><rect x="117.577" y="63.102" width="24.244" height="9.246" style="fill:none;stroke-width:3px;stroke-linecap:round;stroke:#2da0ff;"/><rect x="184.467" y="63.102" width="24.244" height="9.246" style="fill:none;stroke-width:3px;stroke-linecap:round;stroke:#2da0ff;"/><rect x="251.357" y="63.102" width="24.244" height="9.246" style="fill:none;stroke-width:3px;stroke-linecap:round;stroke:#2da0ff;"/><rect x="318.247" y="63.102" width="24.244" height="9.246" style="fill:none;stroke-width:3px;stroke-linecap:round;stroke:#2da0ff;"/><rect x="101.735" y="55.253" width="257.167" height="24.223" style="fill:none;stroke-width:3px;stroke-linecap:round;stroke:#2da0ff;"/><rect x="117.577" y="209.961" width="24.244" height="9.246" style="fill:none;stroke-width:3px;stroke-linecap:round;stroke:#2da0ff;"/><rect x="184.467" y="209.961" width="24.244" height="9.246" style="fill:none;stroke-width:3px;stroke-linecap:round;stroke:#2da0ff;"/><rect x="251.357" y="209.961" width="24.244" height="9.246" style="fill:none;stroke-width:3px;stroke-linecap:round;stroke:#2da0ff;"/><rect x="318.247" y="209.961" width="24.244" height="9.246" style="fill:none;stroke-width:3px;stroke-linecap:round;stroke:#2da0ff;"/><rect x="101.735" y="202.833" width="257.167" height="24.223" style="fill:none;stroke-width:3px;stroke-linecap:round;stroke:#2da0ff;"/><rect x="101.735" y="79.477" width="257.167" height="123.357" style="fill:none;stroke-width:3px;stroke-linecap:round;stroke:#2da0ff;"/></g><g><rect x="-155.432" y="79.477" width="257.167" height="123.357" style="fill:none;stroke-width:3px;stroke-linecap:round;stroke:#2da0ff;"/><rect x="-5.81" y="63.102" width="24.244" height="9.246" style="fill:none;stroke-width:3px;stroke-linecap:round;stroke:#2da0ff;"/><rect x="61.08" y="63.102" width="24.244" height="9.246" style="fill:none;stroke-width:3px;stroke-linecap:round;stroke:#2da0ff;"/><rect x="-155.432" y="55.253" width="257.167" height="24.223" style="fill:none;stroke-width:3px;stroke-linecap:round;stroke:#2da0ff;"/><rect x="-5.81" y="209.961" width="24.244" height="9.246" style="fill:none;stroke-width:3px;stroke-linecap:round;stroke:#2da0ff;"/><rect x="61.08" y="209.961" width="24.244" height="9.246" style="fill:none;stroke-width:3px;stroke-linecap:round;stroke:#2da0ff;"/><rect x="-155.432" y="202.833" width="257.167" height="24.223" style="fill:none;stroke-width:3px;stroke-linecap:round;stroke:#2da0ff;"/></g></g></g><defs><radialGradient id="_Radial2" cx="0" cy="0" r="1" gradientUnits="userSpaceOnUse" gradientTransform="matrix(32.1945,-1.0197e-14,1.0197e-14,32.1945,231.155,141.155)"><stop offset="0%" style="stop-color:#0171ae;stop-opacity:1"/><stop offset="13%" style="stop-color:#0171ae;stop-opacity:1"/><stop offset="18%" style="stop-color:#0171ae;stop-opacity:1"/><stop offset="22%" style="stop-color:#0171ae;stop-opacity:1"/><stop offset="22%" style="stop-color:#0171ae;stop-opacity:1"/><stop offset="65%" style="stop-color:#0a7bbf;stop-opacity:1"/><stop offset="100%" style="stop-color:#2da0ff;stop-opacity:1"/></radialGradient><radialGradient id="_Radial3" cx="0" cy="0" r="1" gradientUnits="userSpaceOnUse" gradientTransform="matrix(-34.9822,5.08897e-14,-5.08897e-14,-34.9822,230.441,141.155)"><stop offset="0%" style="stop-color:#f22a2a;stop-opacity:1"/><stop offset="61%" style="stop-color:#f22929;stop-opacity:1"/><stop offset="79%" style="stop-color:#f22828;stop-opacity:1"/><stop offset="94%" style="stop-color:#f22626;stop-opacity:1"/><stop offset="94%" style="stop-color:#f22626;stop-opacity:1"/><stop offset="95%" style="stop-color:#ae0808;stop-opacity:1"/><stop offset="97%" style="stop-color:#9c0000;stop-opacity:1"/><stop offset="97%" style="stop-color:#9c0000;stop-opacity:1"/><stop offset="98%" style="stop-color:#ad0707;stop-opacity:1"/><stop offset="99%" style="stop-color:#d01717;stop-opacity:1"/><stop offset="100%" style="stop-color:#f22626;stop-opacity:1"/></radialGradient><radialGradient id="_Radial4" cx="0" cy="0" r="1" gradientUnits="userSpaceOnUse" gradientTransform="matrix(7.46423,8.45778e-15,-8.45778e-15,7.46423,231.155,141.774)"><stop offset="0%" style="stop-color:#ff2d2d;stop-opacity:1"/><stop offset="100%" style="stop-color:#802e2e;stop-opacity:1"/></radialGradient><linearGradient id="_Linear5" x1="0" y1="0" x2="1" y2="0" gradientUnits="userSpaceOnUse" gradientTransform="matrix(1.57386e-15,25.7031,-25.7031,1.57386e-15,184.467,128.303)"><stop offset="0%" style="stop-color:#2da0ff;stop-opacity:1"/><stop offset="100%" style="stop-color:#0064c3;stop-opacity:1"/></linearGradient><linearGradient id="_Linear6" x1="0" y1="0" x2="1" y2="0" gradientUnits="userSpaceOnUse" gradientTransform="matrix(6.76552e-15,110.489,-110.489,6.76552e-15,230.441,85.9104)"><stop offset="0%" style="stop-color:#2ca2fd;stop-opacity:1"/><stop offset="29%" style="stop-color:#2ca2fd;stop-opacity:1"/><stop offset="38%" style="stop-color:#2ca2fd;stop-opacity:1"/><stop offset="45%" style="stop-color:#2ca2fd;stop-opacity:1"/><stop offset="45%" style="stop-color:#2ca2fd;stop-opacity:1"/><stop offset="65%" style="stop-color:#004d86;stop-opacity:1"/><stop offset="67%" style="stop-color:#0397e1;stop-opacity:1"/></linearGradient><linearGradient id="_Linear7" x1="0" y1="0" x2="1" y2="0" gradientUnits="userSpaceOnUse" gradientTransform="matrix(6.76552e-15,110.489,-110.489,6.76552e-15,230.441,85.9104)"><stop offset="0%" style="stop-color:#2ca2fd;stop-opacity:1"/><stop offset="29%" style="stop-color:#2ca2fd;stop-opacity:1"/><stop offset="38%" style="stop-color:#2ca2fd;stop-opacity:1"/><stop offset="45%" style="stop-color:#2ca2fd;stop-opacity:1"/><stop offset="45%" style="stop-color:#2ca2fd;stop-opacity:1"/><stop offset="65%" style="stop-color:#004d86;stop-opacity:1"/><stop offset="67%" style="stop-color:#0397e1;stop-opacity:1"/></linearGradient></defs></svg>