<?xml version="1.0" standalone="no"?><!DOCTYPE svg PUBLIC "-//W3C//DTD SVG 1.1//EN" "http://www.w3.org/Graphics/SVG/1.1/DTD/svg11.dtd"><svg width="100%" height="100%" viewBox="0 0 461 260" version="1.1" xmlns="http://www.w3.org/2000/svg" xmlns:xlink="http://www.w3.org/1999/xlink" xml:space="preserve" style="fill-rule:evenodd;clip-rule:evenodd;stroke-linecap:round;stroke-linejoin:round;stroke-miterlimit:1.41421;"><path d="M230.09,97.851l-118.668,104.687l118.668,-118.668l118.667,118.668l-118.667,-104.687Z" style="fill:#2da0ff;stroke-width:3.21px;stroke:#2da0ff;"/><text x="197.058px" y="65.098px" style="font-family:'Rajdhani-Regular';font-size:12px;fill:#2da0ff;stroke-width:0.5px;stroke-linecap:butt;stroke:#2da0ff;">Sound Design</text><g><circle cx="230.09" cy="163.818" r="28.7" style="fill:url(#_Radial1);"/><path d="M230.09,133.308c16.839,0 30.51,13.671 30.51,30.51c0,16.838 -13.671,30.509 -30.51,30.509c-16.839,0 -30.51,-13.671 -30.51,-30.509c0,-16.839 13.671,-30.51 30.51,-30.51ZM230.09,135.117c15.84,0 28.7,12.86 28.7,28.701c0,15.84 -12.86,28.7 -28.7,28.7c-15.84,0 -28.7,-12.86 -28.7,-28.7c0,-15.841 12.86,-28.701 28.7,-28.701Z" style="fill:url(#_Radial2);"/><circle cx="230.09" cy="163.818" r="7.132" style="fill:url(#_Radial3);"/><path d="M233.885,125.284c-2.524,-0.249 -5.066,-0.249 -7.59,0l-1.141,5.994c-2.416,0.366 -4.784,1.001 -7.06,1.891l-3.984,-4.62c-2.31,1.046 -4.512,2.318 -6.574,3.795l2.009,5.761c-1.909,1.525 -3.642,3.259 -5.168,5.168l-5.761,-2.009c-1.477,2.061 -2.748,4.263 -3.795,6.573l4.621,3.985c-0.891,2.276 -1.526,4.644 -1.892,7.06l-5.994,1.14c-0.248,2.524 -0.248,5.067 0,7.591l5.994,1.14c0.366,2.417 1.001,4.784 1.892,7.06l-4.621,3.985c1.047,2.31 2.318,4.512 3.795,6.573l5.761,-2.009c1.526,1.909 3.259,3.643 5.168,5.168l-2.009,5.761c2.062,1.478 4.264,2.749 6.574,3.795l3.984,-4.62c2.276,0.891 4.644,1.525 7.06,1.892l1.141,5.993c2.524,0.249 5.066,0.249 7.59,0l1.141,-5.993c2.416,-0.367 4.784,-1.001 7.059,-1.892l3.985,4.62c2.31,-1.046 4.512,-2.317 6.574,-3.795l-2.01,-5.761c1.91,-1.525 3.643,-3.259 5.169,-5.168l5.761,2.009c1.477,-2.061 2.748,-4.263 3.795,-6.573l-4.621,-3.985c0.891,-2.276 1.525,-4.643 1.892,-7.06l5.994,-1.14c0.248,-2.524 0.248,-5.067 0,-7.591l-5.994,-1.14c-0.367,-2.416 -1.001,-4.784 -1.892,-7.06l4.621,-3.985c-1.047,-2.31 -2.318,-4.512 -3.795,-6.573l-5.761,2.009c-1.526,-1.909 -3.259,-3.643 -5.169,-5.168l2.01,-5.761c-2.062,-1.477 -4.264,-2.749 -6.574,-3.795l-3.985,4.62c-2.275,-0.89 -4.643,-1.525 -7.059,-1.891l-1.141,-5.994ZM230.039,133.01c17.017,0 30.833,13.816 30.833,30.833c0,17.017 -13.816,30.833 -30.833,30.833c-17.017,0 -30.833,-13.816 -30.833,-30.833c0,-17.017 13.816,-30.833 30.833,-30.833Z" style="fill:none;stroke-width:1.5px;stroke:#0b7ad6;"/></g><defs><radialGradient id="_Radial1" cx="0" cy="0" r="1" gradientUnits="userSpaceOnUse" gradientTransform="matrix(28.0783,-8.89333e-15,8.89333e-15,28.0783,230.712,163.818)"><stop offset="0%" style="stop-color:#0171ae;stop-opacity:1"/><stop offset="13%" style="stop-color:#0171ae;stop-opacity:1"/><stop offset="18%" style="stop-color:#0171ae;stop-opacity:1"/><stop offset="22%" style="stop-color:#0171ae;stop-opacity:1"/><stop offset="22%" style="stop-color:#0171ae;stop-opacity:1"/><stop offset="65%" style="stop-color:#0a7bbf;stop-opacity:1"/><stop offset="100%" style="stop-color:#2da0ff;stop-opacity:1"/></radialGradient><radialGradient id="_Radial2" cx="0" cy="0" r="1" gradientUnits="userSpaceOnUse" gradientTransform="matrix(-30.5096,4.43833e-14,-4.43833e-14,-30.5096,230.09,163.818)"><stop offset="0%" style="stop-color:#f22a2a;stop-opacity:1"/><stop offset="61%" style="stop-color:#f22929;stop-opacity:1"/><stop offset="79%" style="stop-color:#f22828;stop-opacity:1"/><stop offset="94%" style="stop-color:#f22626;stop-opacity:1"/><stop offset="94%" style="stop-color:#f22626;stop-opacity:1"/><stop offset="95%" style="stop-color:#ae0808;stop-opacity:1"/><stop offset="97%" style="stop-color:#9c0000;stop-opacity:1"/><stop offset="97%" style="stop-color:#9c0000;stop-opacity:1"/><stop offset="98%" style="stop-color:#ad0707;stop-opacity:1"/><stop offset="99%" style="stop-color:#d01717;stop-opacity:1"/><stop offset="100%" style="stop-color:#f22626;stop-opacity:1"/></radialGradient><radialGradient id="_Radial3" cx="0" cy="0" r="1" gradientUnits="userSpaceOnUse" gradientTransform="matrix(6.50991,7.37643e-15,-7.37643e-15,6.50991,230.712,164.358)"><stop offset="0%" style="stop-color:#ff2d2d;stop-opacity:1"/><stop offset="100%" style="stop-color:#802e2e;stop-opacity:1"/></radialGradient></defs></svg>