<?xml version="1.0" standalone="no"?><!DOCTYPE svg PUBLIC "-//W3C//DTD SVG 1.1//EN" "http://www.w3.org/Graphics/SVG/1.1/DTD/svg11.dtd"><svg width="100%" height="100%" viewBox="0 0 461 260" version="1.1" xmlns="http://www.w3.org/2000/svg" xmlns:xlink="http://www.w3.org/1999/xlink" xml:space="preserve" style="fill-rule:evenodd;clip-rule:evenodd;stroke-linejoin:round;stroke-miterlimit:1.41421;"><clipPath id="_clip1"><rect id="vidProHeader" x="0" y="0" width="460.8" height="259.2"/></clipPath><g clip-path="url(#_clip1)"><text x="187.412px" y="132.318px" style="font-family:'Rajdhani-Regular';font-size:12px;fill:#2da0ff;stroke-width:0.5px;stroke:#2da0ff;">Video Production</text><g><g><rect x="374.884" y="56.271" width="24.244" height="8.66" style="fill:none;stroke-width:3px;stroke-linecap:round;stroke:#2da0ff;"/><rect x="441.774" y="56.271" width="24.244" height="8.66" style="fill:none;stroke-width:3px;stroke-linecap:round;stroke:#2da0ff;"/><rect x="359.041" y="48.92" width="257.167" height="22.689" style="fill:none;stroke-width:3px;stroke-linecap:round;stroke:#2da0ff;"/><rect x="374.884" y="193.825" width="24.244" height="8.66" style="fill:none;stroke-width:3px;stroke-linecap:round;stroke:#2da0ff;"/><rect x="441.774" y="193.825" width="24.244" height="8.66" style="fill:none;stroke-width:3px;stroke-linecap:round;stroke:#2da0ff;"/><rect x="359.041" y="187.149" width="257.167" height="22.689" style="fill:none;stroke-width:3px;stroke-linecap:round;stroke:#2da0ff;"/><rect x="359.065" y="71.608" width="257.167" height="115.541" style="fill:none;stroke-width:3px;stroke-linecap:round;stroke:#2da0ff;"/></g><g><rect x="117.577" y="56.271" width="24.244" height="8.66" style="fill:none;stroke-width:3px;stroke-linecap:round;stroke:#2da0ff;"/><rect x="184.467" y="56.271" width="24.244" height="8.66" style="fill:none;stroke-width:3px;stroke-linecap:round;stroke:#2da0ff;"/><rect x="251.357" y="56.271" width="24.244" height="8.66" style="fill:none;stroke-width:3px;stroke-linecap:round;stroke:#2da0ff;"/><rect x="318.247" y="56.271" width="24.244" height="8.66" style="fill:none;stroke-width:3px;stroke-linecap:round;stroke:#2da0ff;"/><rect x="101.735" y="48.92" width="257.167" height="22.689" style="fill:none;stroke-width:3px;stroke-linecap:round;stroke:#2da0ff;"/><rect x="117.577" y="193.825" width="24.244" height="8.66" style="fill:none;stroke-width:3px;stroke-linecap:round;stroke:#2da0ff;"/><rect x="184.467" y="193.825" width="24.244" height="8.66" style="fill:none;stroke-width:3px;stroke-linecap:round;stroke:#2da0ff;"/><rect x="251.357" y="193.825" width="24.244" height="8.66" style="fill:none;stroke-width:3px;stroke-linecap:round;stroke:#2da0ff;"/><rect x="318.247" y="193.825" width="24.244" height="8.66" style="fill:none;stroke-width:3px;stroke-linecap:round;stroke:#2da0ff;"/><rect x="101.735" y="187.149" width="257.167" height="22.689" style="fill:none;stroke-width:3px;stroke-linecap:round;stroke:#2da0ff;"/><rect x="101.735" y="71.608" width="257.167" height="115.541" style="fill:none;stroke-width:3px;stroke-linecap:round;stroke:#2da0ff;"/></g><g><rect x="-155.432" y="71.608" width="257.167" height="115.541" style="fill:none;stroke-width:3px;stroke-linecap:round;stroke:#2da0ff;"/><rect x="-5.81" y="56.271" width="24.244" height="8.66" style="fill:none;stroke-width:3px;stroke-linecap:round;stroke:#2da0ff;"/><rect x="61.08" y="56.271" width="24.244" height="8.66" style="fill:none;stroke-width:3px;stroke-linecap:round;stroke:#2da0ff;"/><rect x="-155.432" y="48.92" width="257.167" height="22.689" style="fill:none;stroke-width:3px;stroke-linecap:round;stroke:#2da0ff;"/><rect x="-5.81" y="193.825" width="24.244" height="8.66" style="fill:none;stroke-width:3px;stroke-linecap:round;stroke:#2da0ff;"/><rect x="61.08" y="193.825" width="24.244" height="8.66" style="fill:none;stroke-width:3px;stroke-linecap:round;stroke:#2da0ff;"/><rect x="-155.432" y="187.149" width="257.167" height="22.689" style="fill:none;stroke-width:3px;stroke-linecap:round;stroke:#2da0ff;"/></g></g></g></svg>